<svg viewBox="0 0 16 16" xmlns="http://www.w3.org/2000/svg"><path d="M15.5 8.04566C15.5 9.9118 14.8952 11.5548 13.6855 12.9747C12.4758 14.3743 10.9738 15.2161 9.17943 15.5V10.2363H10.9334L11.2661 8.04566H9.17943V6.61564C9.17943 5.84484 9.58264 5.45945 10.3892 5.45945H11.3266V3.60346C10.7621 3.50203 10.2076 3.45133 9.66335 3.45133C8.79637 3.45133 8.10081 3.70488 7.57661 4.21198C7.07258 4.71908 6.82056 5.43917 6.82056 6.37223V8.04566H4.91532V10.2363H6.82056V15.5C5.02621 15.2161 3.52419 14.3743 2.31452 12.9747C1.10484 11.5548 0.5 9.9118 0.5 8.04566C0.5 5.95641 1.22581 4.18155 2.67742 2.7211C4.14919 1.24037 5.92339 0.5 8 0.5C10.0766 0.5 11.8408 1.24037 13.2924 2.7211C14.7641 4.18155 15.5 5.95641 15.5 8.04566Z"></path></svg>