<svg viewBox="0 0 16 16" xmlns="http://www.w3.org/2000/svg">
    <path d="M8 0C6.41775 0 4.87103 0.469192 3.55544 1.34824C2.23985 2.22729 1.21447 3.47672 0.608967 4.93853C0.00346625 6.40034 -0.15496 8.00887 0.153721 9.56072C0.462403 11.1126 1.22433 12.538 2.34315 13.6569C3.46197 14.7757 4.88743 15.5376 6.43928 15.8463C7.99113 16.155 9.59966 15.9965 11.0615 15.391C12.5233 14.7855 13.7727 13.7602 14.6518 12.4446C15.5308 11.129 16 9.58225 16 8C16 5.87827 15.1571 3.84344 13.6569 2.34315C12.1566 0.842855 10.1217 0 8 0V0ZM14.31 5H11.72C11.497 3.70941 11.0065 2.47974 10.28 1.39C11.1577 1.69424 11.966 2.17012 12.6579 2.7899C13.3498 3.40969 13.9114 4.16098 14.31 5ZM11 8C10.9992 8.66875 10.9558 9.33677 10.87 10H8.5V6H10.87C10.9558 6.66323 10.9992 7.33125 11 8ZM5 8C5.00083 7.33125 5.04425 6.66323 5.13 6H7.5V10H5.13C5.04425 9.33677 5.00083 8.66875 5 8ZM7.5 1.12V5H5.31C5.75 2.94 6.62 1.52 7.5 1.12ZM7.5 11V14.88C6.62 14.48 5.75 13.06 5.31 11H7.5ZM8.5 14.88V11H10.69C10.25 13.06 9.38 14.48 8.5 14.88ZM8.5 5V1.12C9.38 1.52 10.25 2.94 10.69 5H8.5ZM5.72 1.39C4.9935 2.47974 4.50299 3.70941 4.28 5H1.69C2.08862 4.16098 2.65023 3.40969 3.34213 2.7899C4.03402 2.17012 4.84235 1.69424 5.72 1.39ZM1.29 6H4.13C4.04525 6.66333 4.00184 7.33128 4 8C4.00184 8.66872 4.04525 9.33667 4.13 10H1.29C0.900942 8.69505 0.900942 7.30495 1.29 6ZM1.69 11H4.28C4.50299 12.2906 4.9935 13.5203 5.72 14.61C4.84235 14.3058 4.03402 13.8299 3.34213 13.2101C2.65023 12.5903 2.08862 11.839 1.69 11ZM10.28 14.61C11.0065 13.5203 11.497 12.2906 11.72 11H14.31C13.9114 11.839 13.3498 12.5903 12.6579 13.2101C11.966 13.8299 11.1577 14.3058 10.28 14.61ZM14.71 10H11.87C11.9548 9.33667 11.9982 8.66872 12 8C11.9982 7.33128 11.9548 6.66333 11.87 6H14.71C15.0991 7.30495 15.0991 8.69505 14.71 10Z"></path>
</svg>