<svg viewBox="0 0 16 16" xmlns="http://www.w3.org/2000/svg"><path d="M5.4375 5.46875C6.14583 4.76042 7 4.40625 8 4.40625C9 4.40625 9.84375 4.76042 10.5312 5.46875C11.2395 6.15625 11.5938 7 11.5938 8C11.5938 9 11.2395 9.85417 10.5312 10.5625C9.84375 11.25 9 11.5938 8 11.5938C7 11.5938 6.14583 11.25 5.4375 10.5625C4.75 9.85417 4.40625 9 4.40625 8C4.40625 7 4.75 6.15625 5.4375 5.46875ZM6.34375 9.65625C6.80208 10.1146 7.35417 10.3438 8 10.3438C8.64583 10.3438 9.19792 10.1146 9.65625 9.65625C10.1146 9.19792 10.3438 8.64583 10.3438 8C10.3438 7.35417 10.1146 6.80208 9.65625 6.34375C9.19792 5.88542 8.64583 5.65625 8 5.65625C7.35417 5.65625 6.80208 5.88542 6.34375 6.34375C5.88542 6.80208 5.65625 7.35417 5.65625 8C5.65625 8.64583 5.88542 9.19792 6.34375 9.65625ZM12.3125 3.6875C12.4791 3.83333 12.5625 4.02083 12.5625 4.25C12.5625 4.47917 12.4791 4.67708 12.3125 4.84375C12.1666 5.01042 11.9792 5.09375 11.75 5.09375C11.5209 5.09375 11.323 5.01042 11.1562 4.84375C10.9895 4.67708 10.9062 4.47917 10.9062 4.25C10.9062 4.02083 10.9895 3.83333 11.1562 3.6875C11.323 3.52083 11.5209 3.4375 11.75 3.4375C11.9792 3.4375 12.1666 3.52083 12.3125 3.6875ZM14.9688 5.125C14.9895 5.6875 15 6.64583 15 8C15 9.35417 14.9895 10.3125 14.9688 10.875C14.9062 12.1458 14.5208 13.1354 13.8125 13.8438C13.1249 14.5312 12.1459 14.8958 10.875 14.9375C10.3125 14.9792 9.35417 15 8 15C6.64583 15 5.6875 14.9792 5.125 14.9375C3.85417 14.875 2.86458 14.5 2.15625 13.8125C1.46875 13.125 1.10417 12.1458 1.0625 10.875C1.02083 10.3125 1 9.35417 1 8C1 6.64583 1.02083 5.67708 1.0625 5.09375C1.125 3.84375 1.5 2.875 2.1875 2.1875C2.875 1.47917 3.85417 1.09375 5.125 1.03125C5.6875 1.01042 6.64583 1 8 1C9.35417 1 10.3125 1.01042 10.875 1.03125C12.1459 1.09375 13.1249 1.47917 13.8125 2.1875C14.5208 2.875 14.9062 3.85417 14.9688 5.125ZM13.4688 12.125C13.5312 11.9583 13.5834 11.75 13.625 11.5C13.6667 11.2292 13.698 10.9167 13.7188 10.5625C13.7395 10.1875 13.75 9.88542 13.75 9.65625C13.75 9.42708 13.75 9.10417 13.75 8.6875C13.75 8.27083 13.75 8.04167 13.75 8C13.75 7.9375 13.75 7.70833 13.75 7.3125C13.75 6.89583 13.75 6.57292 13.75 6.34375C13.75 6.11458 13.7395 5.82292 13.7188 5.46875C13.698 5.09375 13.6667 4.78125 13.625 4.53125C13.5834 4.26042 13.5312 4.04167 13.4688 3.875C13.2188 3.22917 12.7709 2.78125 12.125 2.53125C11.9584 2.46875 11.7395 2.41667 11.4688 2.375C11.2188 2.33333 10.9062 2.30208 10.5312 2.28125C10.1771 2.26042 9.88542 2.25 9.65625 2.25C9.44792 2.25 9.125 2.25 8.6875 2.25C8.27083 2.25 8.04167 2.25 8 2.25C7.95833 2.25 7.72917 2.25 7.3125 2.25C6.89583 2.25 6.57292 2.25 6.34375 2.25C6.11458 2.25 5.8125 2.26042 5.4375 2.28125C5.08333 2.30208 4.77083 2.33333 4.5 2.375C4.25 2.41667 4.04167 2.46875 3.875 2.53125C3.22917 2.78125 2.78125 3.22917 2.53125 3.875C2.46875 4.04167 2.41667 4.26042 2.375 4.53125C2.33333 4.78125 2.30208 5.09375 2.28125 5.46875C2.26042 5.82292 2.25 6.11458 2.25 6.34375C2.25 6.55208 2.25 6.875 2.25 7.3125C2.25 7.72917 2.25 7.95833 2.25 8C2.25 8.04167 2.25 8.27083 2.25 8.6875C2.25 9.10417 2.25 9.42708 2.25 9.65625C2.25 9.88542 2.26042 10.1875 2.28125 10.5625C2.30208 10.9167 2.33333 11.2292 2.375 11.5C2.41667 11.75 2.46875 11.9583 2.53125 12.125C2.80208 12.7708 3.25 13.2188 3.875 13.4688C4.04167 13.5312 4.25 13.5833 4.5 13.625C4.77083 13.6667 5.08333 13.6979 5.4375 13.7188C5.8125 13.7396 6.10417 13.75 6.3125 13.75C6.54167 13.75 6.86458 13.75 7.28125 13.75C7.71875 13.75 7.95833 13.75 8 13.75C8.0625 13.75 8.29167 13.75 8.6875 13.75C9.10417 13.75 9.42708 13.75 9.65625 13.75C9.88542 13.75 10.1771 13.7396 10.5312 13.7188C10.9062 13.6979 11.2188 13.6667 11.4688 13.625C11.7395 13.5833 11.9584 13.5312 12.125 13.4688C12.7709 13.1979 13.2188 12.75 13.4688 12.125Z"></path></svg>