<svg viewBox="0 0 16 16" xmlns="http://www.w3.org/2000/svg"><path d="M14 1C14.2708 1 14.5 1.10417 14.6875 1.3125C14.8958 1.5 15 1.72917 15 2V14C15 14.2708 14.8958 14.5 14.6875 14.6875C14.5 14.8958 14.2708 15 14 15H2C1.72917 15 1.48958 14.8958 1.28125 14.6875C1.09375 14.5 1 14.2708 1 14V2C1 1.72917 1.09375 1.5 1.28125 1.3125C1.48958 1.10417 1.72917 1 2 1H14ZM5.21875 13H5.25V6.3125H3.15625V13H5.21875ZM3.34375 5.0625C3.57292 5.29167 3.85417 5.40625 4.1875 5.40625C4.52083 5.40625 4.80208 5.29167 5.03125 5.0625C5.28125 4.8125 5.40625 4.53125 5.40625 4.21875C5.40625 3.88542 5.28125 3.60417 5.03125 3.375C4.80208 3.125 4.52083 3 4.1875 3C3.85417 3 3.57292 3.125 3.34375 3.375C3.11458 3.60417 3 3.88542 3 4.21875C3 4.53125 3.11458 4.8125 3.34375 5.0625ZM13 13V9.34375C13 8.30208 12.8229 7.51042 12.4688 6.96875C12.1354 6.42708 11.4896 6.15625 10.5312 6.15625C10.0521 6.15625 9.63542 6.26042 9.28125 6.46875C8.94792 6.67708 8.70833 6.92708 8.5625 7.21875H8.53125V6.3125H6.53125V13H8.625V9.6875C8.625 9.16667 8.70833 8.75 8.875 8.4375C9.04167 8.125 9.36458 7.96875 9.84375 7.96875C10.0938 7.96875 10.3021 8.02083 10.4688 8.125C10.6354 8.22917 10.7396 8.38542 10.7812 8.59375C10.8438 8.80208 10.8854 8.98958 10.9062 9.15625C10.9271 9.30208 10.9375 9.5 10.9375 9.75V13H13Z"></path></svg>