<svg viewBox="0 0 16 16" xmlns="http://www.w3.org/2000/svg"><path d="M0.470001 7.16H2.13C2.42794 7.15133 2.72526 7.19188 3.00999 7.28C3.21597 7.34378 3.40661 7.44931 3.57001 7.59C3.70011 7.72162 3.79621 7.88293 3.85001 8.06C3.90721 8.23758 3.93423 8.42348 3.92999 8.61C3.93362 8.80631 3.90664 9.002 3.85001 9.19C3.79922 9.37422 3.70293 9.54272 3.57001 9.68C3.40474 9.82572 3.21047 9.93478 3 10C2.72184 10.0868 2.4313 10.1274 2.14 10.12H1.41V11.8H0.410004L0.470001 7.16ZM2.13 9.33C2.26851 9.33637 2.40708 9.31947 2.53999 9.28C2.64008 9.25608 2.73278 9.20802 2.81 9.14C2.87399 9.077 2.91904 8.99732 2.94 8.91C2.95183 8.81369 2.95183 8.7163 2.94 8.62C2.95112 8.527 2.95112 8.433 2.94 8.34C2.91247 8.25898 2.86421 8.18657 2.8 8.13C2.72339 8.06895 2.6348 8.02466 2.53999 8C2.40056 7.98222 2.25943 7.98222 2.12 8H1.42999V9.33H2.13ZM4.78 7.16H6.52C7.12678 7.1242 7.7232 7.329 8.17999 7.73C8.38861 7.96251 8.54836 8.23459 8.64972 8.53007C8.75108 8.82555 8.79198 9.13839 8.77 9.45C8.77745 9.79026 8.72324 10.1291 8.61 10.45C8.50706 10.7293 8.34308 10.9821 8.13 11.19C7.91337 11.3948 7.6537 11.5485 7.37 11.64C7.04664 11.7424 6.70915 11.793 6.37 11.79H4.8L4.78 7.16ZM6.37 10.97C6.59193 10.9786 6.81324 10.9411 7.02 10.86C7.18524 10.7958 7.33268 10.6929 7.45 10.56C7.56131 10.4177 7.64293 10.2544 7.69 10.08C7.749 9.8788 7.776 9.66958 7.77 9.46C7.77375 9.25117 7.75021 9.04274 7.7 8.84C7.66289 8.67368 7.59136 8.51698 7.49001 8.38C7.38583 8.25273 7.25188 8.15312 7.10001 8.09C6.91643 8.01339 6.71888 7.97593 6.52 7.98H5.75V10.98L6.37 10.97ZM9.75 7.16H12.8V8H10.72V9.08H12.72V9.91H10.72V11.8H9.72L9.75 7.16ZM12 0H4V6H5V1H11V5H15V15H5V13H4V16H16V4L12 0ZM12 4V1.41L14.59 4H12Z"></path></svg>