<svg viewBox="0 0 16 16" xmlns="http://www.w3.org/2000/svg"><path fill-rule="evenodd" clip-rule="evenodd" d="M5.77772 7.32588C6.43443 7.76468 7.20633 7.99923 7.99609 8H6C4.93913 8 3.92172 8.42143 3.17157 9.17157C2.42143 9.92172 2 10.9391 2 12V16H3V12C3 11.2044 3.31607 10.4413 3.87868 9.87868C4.44129 9.31607 5.20435 9 6 9H10C10.7956 9 11.5587 9.31607 12.1213 9.87868C12.6839 10.4413 13 11.2044 13 12V16H14V12C14 10.9391 13.5786 9.92172 12.8284 9.17157C12.0783 8.42143 11.0609 8 10 8H8.00391C9.06337 7.99897 10.0792 7.57765 10.8284 6.82843C11.5786 6.07828 12 5.06087 12 4C12 3.20888 11.7654 2.43552 11.3259 1.77772C10.8864 1.11992 10.2616 0.607234 9.53074 0.304484C8.79983 0.00173313 7.99556 -0.0774802 7.21964 0.0768607C6.44372 0.231202 5.73098 0.612165 5.17157 1.17157C4.61216 1.73098 4.2312 2.44372 4.07686 3.21964C3.92252 3.99556 4.00173 4.79983 4.30448 5.53074C4.60723 6.26164 5.11992 6.88635 5.77772 7.32588ZM6.33329 1.50559C6.82664 1.17595 7.40666 1 8 1C8.79565 1 9.55871 1.31607 10.1213 1.87868C10.6839 2.44129 11 3.20435 11 4C11 4.59335 10.8241 5.17337 10.4944 5.66671C10.1648 6.16006 9.69623 6.54458 9.14805 6.77164C8.59987 6.9987 7.99667 7.05811 7.41473 6.94236C6.83279 6.8266 6.29824 6.54088 5.87868 6.12132C5.45912 5.70176 5.1734 5.16722 5.05765 4.58527C4.94189 4.00333 5.0013 3.40013 5.22836 2.85195C5.45543 2.30377 5.83994 1.83524 6.33329 1.50559Z"></path></svg>