<svg viewBox="0 0 16 16" xmlns="http://www.w3.org/2000/svg"><path d="M13.2924 2.70766C14.7641 4.15927 15.5 5.92339 15.5 8C15.5 10.0766 14.7641 11.8508 13.2924 13.3226C11.8408 14.7742 10.0766 15.5 8 15.5C7.23387 15.5 6.49799 15.3891 5.79234 15.1673C6.27621 14.3609 6.57863 13.7056 6.6996 13.2016L7.18347 11.4173C7.30444 11.6592 7.52621 11.8609 7.84879 12.0221C8.17137 12.1835 8.5242 12.2641 8.90726 12.2641C10.0161 12.2641 10.9334 11.8205 11.6592 10.9334C12.4053 10.0263 12.7782 8.91734 12.7782 7.60685C12.7782 6.37702 12.3347 5.34879 11.4476 4.52218C10.5605 3.69556 9.4617 3.28226 8.15121 3.28226C6.61895 3.28226 5.40928 3.7258 4.52218 4.6129C3.65525 5.5 3.22177 6.56854 3.22177 7.81855C3.22177 8.40323 3.3629 8.9879 3.64516 9.57258C3.92742 10.1371 4.29033 10.5202 4.73387 10.7218C4.875 10.7823 4.95565 10.7521 4.97581 10.6311C4.99596 10.5907 5.02621 10.4597 5.06653 10.2379C5.12702 9.99597 5.16734 9.84476 5.1875 9.78427C5.20766 9.70363 5.1875 9.63306 5.12702 9.57258C4.76411 9.10887 4.58266 8.53427 4.58266 7.84879C4.58266 6.98186 4.88508 6.22581 5.48992 5.58065C6.11492 4.91532 6.94153 4.58266 7.96976 4.58266C8.89717 4.58266 9.65322 4.875 10.2379 5.45968C10.8226 6.02419 11.115 6.75 11.115 7.6371C11.115 8.64516 10.8831 9.47177 10.4194 10.1169C9.97584 10.7621 9.42137 11.0847 8.75605 11.0847C8.37299 11.0847 8.07057 10.9536 7.84879 10.6915C7.62701 10.4093 7.55645 10.0866 7.6371 9.72379C7.67742 9.52218 7.75806 9.23992 7.87903 8.87702C8 8.51411 8.09073 8.20161 8.15121 7.93952C8.21169 7.65725 8.24194 7.41532 8.24194 7.21371C8.24194 6.91129 8.16129 6.66935 8 6.4879C7.83871 6.28629 7.60685 6.18548 7.30444 6.18548C6.92137 6.18548 6.59879 6.35685 6.33669 6.6996C6.0746 7.04234 5.94355 7.4758 5.94355 8C5.94355 8.20161 5.96371 8.39315 6.00403 8.5746C6.04436 8.75605 6.08467 8.8871 6.125 8.96774L6.18548 9.11895C5.68145 11.1956 5.37904 12.4355 5.27823 12.8387C5.17742 13.3427 5.17742 14.0585 5.27823 14.9859C3.84677 14.4415 2.6875 13.5343 1.8004 12.2641C0.933468 10.994 0.5 9.57258 0.5 8C0.5 5.92339 1.22581 4.15927 2.67742 2.70766C4.14919 1.23589 5.92339 0.5 8 0.5C10.0766 0.5 11.8408 1.23589 13.2924 2.70766Z"></path></svg>